<svg width="1200" height="630" viewBox="0 0 1200 630" fill="none" xmlns="http://www.w3.org/2000/svg">
<rect width="1200" height="630" fill="white"/>
<path d="M380.071 375.706V271.808H405.734L422.471 318.02C423.534 320.995 424.543 324.129 425.499 327.422C426.456 330.715 427.465 333.955 428.528 337.142H429.166C430.228 333.955 431.185 330.715 432.035 327.422C432.991 324.129 434.001 320.995 435.063 318.02L451.481 271.808H476.985V375.706H455.626V337.621C455.626 334.221 455.785 330.45 456.104 326.306C456.529 322.057 456.954 317.808 457.379 313.558C457.911 309.309 458.336 305.537 458.654 302.244H458.017L449.569 326.944L434.745 366.623H421.833L407.009 326.944L398.721 302.244H398.083C398.508 305.537 398.933 309.309 399.358 313.558C399.783 317.808 400.155 322.057 400.474 326.306C400.899 330.45 401.111 334.221 401.111 337.621V375.706H380.071Z" fill="black"/>
<path d="M542.453 377.618C528.957 377.618 518.65 373.634 511.53 365.667C504.41 357.699 500.85 345.004 500.85 327.581V271.808H524.441V329.972C524.441 340.17 525.982 347.288 529.064 351.325C532.145 355.362 536.609 357.38 542.453 357.38C548.298 357.38 552.814 355.362 556.002 351.325C559.19 347.288 560.784 340.17 560.784 329.972V271.808H583.419V327.581C583.419 345.004 579.912 357.699 572.898 365.667C565.991 373.634 555.843 377.618 542.453 377.618Z" fill="black"/>
<path d="M607.494 375.706V271.808H631.563L658.661 323.438L668.863 346.385H669.5C669.075 340.861 668.491 334.699 667.747 327.9C667.003 321.101 666.631 314.621 666.631 308.459V271.808H688.947V375.706H664.878L637.78 323.916L627.578 301.288H626.941C627.472 307.025 628.057 313.186 628.694 319.773C629.438 326.36 629.81 332.734 629.81 338.895V375.706H607.494Z" fill="black"/>
<path d="M756.857 377.618C748.143 377.618 740.12 375.6 732.788 371.563C725.455 367.526 719.558 361.577 715.094 353.715C710.737 345.748 708.559 335.974 708.559 324.394C708.559 312.921 710.791 303.147 715.254 295.073C719.823 286.893 725.827 280.678 733.266 276.429C740.811 272.073 748.94 269.896 757.654 269.896C764.349 269.896 770.353 271.277 775.666 274.039C780.979 276.695 785.389 279.829 788.896 283.441L776.463 298.42C773.806 295.976 770.99 294.011 768.015 292.524C765.146 290.93 761.851 290.133 758.132 290.133C753.456 290.133 749.152 291.461 745.221 294.117C741.395 296.773 738.313 300.598 735.976 305.591C733.744 310.584 732.628 316.586 732.628 323.597C732.628 334.221 734.913 342.507 739.482 348.457C744.052 354.406 750.162 357.38 757.813 357.38C762.064 357.38 765.836 356.424 769.13 354.512C772.531 352.6 775.506 350.316 778.057 347.66L790.49 362.32C781.776 372.519 770.565 377.618 756.857 377.618Z" fill="black"/>
<path d="M806.275 375.706V271.808H829.707V311.805H865.572V271.808H889.163V375.706H865.572V332.362H829.707V375.706H806.275Z" fill="black"/>
<path d="M913.683 375.706V271.808H937.114V375.706H913.683Z" fill="black"/>
<path d="M961.627 375.706V271.808H985.058V314.355H985.696L1016.62 271.808H1042.44L1011.04 313.24L1048.18 375.706H1022.52L997.173 331.884L985.058 347.819V375.706H961.627Z" fill="black"/>
<path d="M1082.37 323.119L1079.82 332.681H1101.98L1099.58 323.119C1098.2 317.914 1096.77 312.39 1095.28 306.547C1093.9 300.704 1092.52 295.073 1091.14 289.655H1090.5C1089.22 295.18 1087.9 300.863 1086.51 306.706C1085.24 312.443 1083.86 317.914 1082.37 323.119ZM1044.75 375.706L1077.27 271.808H1105.48L1138 375.706H1113.13L1106.76 351.006H1075.04L1068.66 375.706H1044.75Z" fill="black"/>
<path d="M307.074 315C307.074 386.245 249.302 444 178.037 444C106.772 444 49 386.245 49 315C49 243.755 106.772 186 178.037 186C249.302 186 307.074 243.755 307.074 315Z" fill="#FF0101"/>
<path fill-rule="evenodd" clip-rule="evenodd" d="M202.64 188.342C194.998 186.867 187.115 186.066 179.056 186.004L169.423 205.659H109.534C100.304 211.451 91.8596 218.378 84.3965 226.244H89.4483L118.271 285.059H52.4936C50.9065 291.735 49.8384 298.611 49.3342 305.644H306.74C306.236 298.611 305.167 291.735 303.58 285.059H237.741L266.564 226.244H271.677C264.214 218.378 255.77 211.451 246.54 205.659H194.154L202.64 188.342ZM241.833 226.244L213.01 285.059H143.002L114.179 226.244H241.833Z" fill="white"/>
<path fill-rule="evenodd" clip-rule="evenodd" d="M270.7 404.775L275.615 352.696H278.05V332.111H75.0819V352.696H77.5794L82.1712 401.35C90.9667 411.103 101.23 419.507 112.614 426.214H243.46C253.488 420.305 262.648 413.08 270.7 404.775ZM252.467 387.984L250.525 408.57H102.669L100.727 387.984H252.467ZM255.798 352.696L254.41 367.399H98.784L97.3963 352.696H255.798Z" fill="white"/>
<path d="M206.203 440.918H149.871C158.937 442.936 168.363 444 178.037 444C187.711 444 197.137 442.936 206.203 440.918Z" fill="white"/>
</svg>
