<svg width="156" height="34" viewBox="0 0 156 34" fill="none" xmlns="http://www.w3.org/2000/svg">
<path d="M43.617 25V11.308H46.998L49.203 17.398C49.343 17.79 49.476 18.203 49.602 18.637C49.728 19.071 49.861 19.498 50.001 19.918H50.085C50.225 19.498 50.351 19.071 50.463 18.637C50.589 18.203 50.722 17.79 50.862 17.398L53.025 11.308H56.385V25H53.571V19.981C53.571 19.533 53.592 19.036 53.634 18.49C53.69 17.93 53.746 17.37 53.802 16.81C53.872 16.25 53.928 15.753 53.97 15.319H53.886L52.773 18.574L50.82 23.803H49.119L47.166 18.574L46.074 15.319H45.99C46.046 15.753 46.102 16.25 46.158 16.81C46.214 17.37 46.263 17.93 46.305 18.49C46.361 19.036 46.389 19.533 46.389 19.981V25H43.617ZM65.0101 25.252C63.2321 25.252 61.8741 24.727 60.9361 23.677C59.9981 22.627 59.5291 20.954 59.5291 18.658V11.308H62.6371V18.973C62.6371 20.317 62.8401 21.255 63.2461 21.787C63.6521 22.319 64.2401 22.585 65.0101 22.585C65.7801 22.585 66.3751 22.319 66.7951 21.787C67.2151 21.255 67.4251 20.317 67.4251 18.973V11.308H70.4071V18.658C70.4071 20.954 69.9451 22.627 69.0211 23.677C68.1111 24.727 66.7741 25.252 65.0101 25.252ZM73.5789 25V11.308H76.7499L80.3199 18.112L81.6639 21.136H81.7479C81.6919 20.408 81.6149 19.596 81.5169 18.7C81.4189 17.804 81.3699 16.95 81.3699 16.138V11.308H84.3099V25H81.1389L77.5689 18.175L76.2249 15.193H76.1409C76.2109 15.949 76.2879 16.761 76.3719 17.629C76.4699 18.497 76.5189 19.337 76.5189 20.149V25H73.5789ZM93.2567 25.252C92.1087 25.252 91.0517 24.986 90.0857 24.454C89.1197 23.922 88.3427 23.138 87.7547 22.102C87.1807 21.052 86.8937 19.764 86.8937 18.238C86.8937 16.726 87.1877 15.438 87.7757 14.374C88.3777 13.296 89.1687 12.477 90.1487 11.917C91.1427 11.343 92.2137 11.056 93.3617 11.056C94.2437 11.056 95.0347 11.238 95.7347 11.602C96.4347 11.952 97.0157 12.365 97.4777 12.841L95.8397 14.815C95.4897 14.493 95.1187 14.234 94.7267 14.038C94.3487 13.828 93.9147 13.723 93.4247 13.723C92.8087 13.723 92.2417 13.898 91.7237 14.248C91.2197 14.598 90.8137 15.102 90.5057 15.76C90.2117 16.418 90.0647 17.209 90.0647 18.133C90.0647 19.533 90.3657 20.625 90.9677 21.409C91.5697 22.193 92.3747 22.585 93.3827 22.585C93.9427 22.585 94.4397 22.459 94.8737 22.207C95.3217 21.955 95.7137 21.654 96.0497 21.304L97.6877 23.236C96.5397 24.58 95.0627 25.252 93.2567 25.252ZM99.7674 25V11.308H102.854V16.579H107.579V11.308H110.687V25H107.579V19.288H102.854V25H99.7674ZM113.918 25V11.308H117.005V25H113.918ZM120.234 25V11.308H123.321V16.915H123.405L127.479 11.308H130.881L126.744 16.768L131.637 25H128.256L124.917 19.225L123.321 21.325V25H120.234ZM136.142 18.07L135.806 19.33H138.725L138.41 18.07C138.228 17.384 138.039 16.656 137.843 15.886C137.661 15.116 137.479 14.374 137.297 13.66H137.213C137.045 14.388 136.87 15.137 136.688 15.907C136.52 16.663 136.338 17.384 136.142 18.07ZM131.186 25L135.47 11.308H139.187L143.471 25H140.195L139.355 21.745H135.176L134.336 25H131.186Z" fill="white"/>
<circle cx="17" cy="17" r="17" fill="#FF0101"/>
<path fill-rule="evenodd" clip-rule="evenodd" d="M20.2414 0.308649C19.2345 0.114266 18.1959 0.00872857 17.1342 0.000518799L15.8652 2.59075H7.97503C6.75906 3.35396 5.64655 4.26682 4.66333 5.30352H5.32887L9.12615 13.0543H0.460265C0.251174 13.934 0.110454 14.8403 0.0440292 15.7671H33.956C33.8896 14.8403 33.7488 13.934 33.5397 13.0543H24.8657L28.663 5.30352H29.3367C28.3535 4.26682 27.241 3.35396 26.025 2.59075H19.1233L20.2414 0.308649ZM29.2079 28.8308L29.8554 21.9677H30.1763V19.2549H3.43617V21.9677H3.7652L4.37014 28.3794C5.52892 29.6647 6.88109 30.7722 8.38082 31.6561H25.6192C26.9404 30.8774 28.1471 29.9252 29.2079 28.8308ZM20.7108 33.5938H13.2892C14.4837 33.8597 15.7254 34 17 34C18.2746 34 19.5164 33.8597 20.7108 33.5938ZM25.4048 5.30352L21.6076 13.0543H12.3843L8.58698 5.30352H25.4048ZM26.8059 26.6181L26.5499 29.3309H7.0707L6.81475 26.6181H26.8059ZM27.2446 21.9677L27.0618 23.9053H6.5588L6.37599 21.9677H27.2446Z" fill="white"/>
</svg>
