<svg width="34" height="34" viewBox="0 0 34 34" fill="none" xmlns="http://www.w3.org/2000/svg">
<circle cx="17" cy="17" r="17" fill="#FF0101"/>
<path fill-rule="evenodd" clip-rule="evenodd" d="M20.2414 0.308648C19.2345 0.114266 18.1959 0.00872853 17.1342 0.00051875L15.8652 2.59075H7.97503C6.75905 3.35396 5.64655 4.26682 4.66332 5.30352H5.32887L9.12615 13.0543H0.460262C0.251172 13.934 0.110452 14.8403 0.0440264 15.7671H33.956C33.8895 14.8403 33.7488 13.934 33.5397 13.0543H24.8657L28.663 5.30352H29.3367C28.3535 4.26682 27.2409 3.35396 26.025 2.59075H19.1233L20.2414 0.308648ZM29.2079 28.8308L29.8554 21.9677H30.1763V19.2549H3.43617V21.9677H3.76519L4.37014 28.3794C5.52892 29.6647 6.88109 30.7722 8.38081 31.6561H25.6192C26.9404 30.8774 28.1471 29.9252 29.2079 28.8308ZM20.7108 33.5938H13.2892C14.4836 33.8597 15.7254 34 17 34C18.2746 34 19.5164 33.8597 20.7108 33.5938ZM25.4048 5.30352L21.6076 13.0543H12.3843L8.58698 5.30352H25.4048ZM26.8059 26.6181L26.5499 29.3309H7.0707L6.81475 26.6181H26.8059ZM27.2446 21.9677L27.0618 23.9053H6.5588L6.37598 21.9677H27.2446Z" fill="white"/>
</svg>
